<?xml version="1.0" encoding="UTF-8" standalone="no"?>
<!DOCTYPE svg PUBLIC "-//W3C//DTD SVG 1.1//EN"
        "http://www.w3.org/Graphics/SVG/1.1/DTD/svg11.dtd">
<!-- Generated by graphviz version 2.38.0 (20140413.2041)
 -->
<!-- Title: g Pages: 1 -->
<svg width="1056pt" height="1321pt"
     viewBox="0.00 0.00 1056.00 1321.00" xmlns="http://www.w3.org/2000/svg">
    <g id="graph0" class="graph" transform="scale(1 1) rotate(0) translate(4 1317)">
        <title>g</title>
        <polygon fill="white" stroke="none" points="-4,4 -4,-1317 1052,-1317 1052,4 -4,4"/>
        <g id="clust1" class="cluster">
            <title>cluster_1322970774</title>
            <polygon fill="#ececec" stroke="black" points="8,-8 8,-1305 1040,-1305 1040,-8 8,-8"/>
            <text text-anchor="middle" x="39.5" y="-1289.8" font-family="Times,serif" font-size="14.00">example</text>
        </g>
        <g id="clust2" class="cluster">
            <title>cluster_2052882032</title>
            <polygon fill="#d8d8d8" stroke="black" points="16,-16 16,-1274 1032,-1274 1032,-16 16,-16"/>
            <text text-anchor="middle" x="105.5" y="-1258.8" font-family="Times,serif" font-size="14.00">
                personalisiertes_dashboard_rr
            </text>
        </g>
        <!-- Appointment1266025533 -->
        <g id="node1" class="node">
            <title>Appointment1266025533</title>
            <polygon fill="#ffffff" stroke="none" points="425,-164 249,-164 249,-24 425,-24 425,-164"/>
            <text text-anchor="start" x="254" y="-147.8" font-family="Times,serif" font-size="14.00">(C)Appointment
            </text>
            <text text-anchor="start" x="254" y="-124.8" font-family="Times,serif" font-size="14.00">&#45; &#160;&#160;begin:
                LocalTime [0..1]
            </text>
            <text text-anchor="start" x="254" y="-101.8" font-family="Times,serif" font-size="14.00">&#45; &#160;&#160;date:
                LocalDateTime [0..1]
            </text>
            <text text-anchor="start" x="254" y="-78.8" font-family="Times,serif" font-size="14.00">&#45; &#160;&#160;end:
                LocalTime [0..1]
            </text>
            <text text-anchor="start" x="254" y="-55.8" font-family="Times,serif" font-size="14.00">&#45; &#160;&#160;note:
                String [0..1]
            </text>
            <text text-anchor="start" x="254" y="-32.8" font-family="Times,serif" font-size="14.00">&#45; &#160;&#160;titel:
                String [0..1]
            </text>
            <polygon fill="black" stroke="black" points="249,-140 249,-140 425,-140 425,-140 249,-140"/>
            <polygon fill="none" stroke="black" points="249,-24 249,-164 425,-164 425,-24 249,-24"/>
        </g>
        <!-- CalenderController1266025533 -->
        <g id="node2" class="node">
            <title>CalenderController1266025533</title>
            <polygon fill="#ffffff" stroke="none" points="1023.5,-1243 24.5,-1243 24.5,-459 1023.5,-459 1023.5,-1243"/>
            <text text-anchor="start" x="30" y="-1226.8" font-family="Times,serif" font-size="14.00">
                (C)CalenderController
            </text>
            <text text-anchor="start" x="30" y="-1203.8" font-family="Times,serif" font-size="14.00">&#45; &#160;&#160;appointments:
                List&lt;Appointment&gt; [0..*]
            </text>
            <text text-anchor="start" x="30" y="-1180.8" font-family="Times,serif" font-size="14.00">&#45; &#160;&#160;appointmentsOftTheDay:
                Pane [0..1]
            </text>
            <text text-anchor="start" x="30" y="-1157.8" font-family="Times,serif" font-size="14.00">&#45; &#160;&#160;calenderGrid:
                GridPane [0..1]
            </text>
            <text text-anchor="start" x="30" y="-1134.8" font-family="Times,serif" font-size="14.00">&#45; &#160;&#160;monthLabel:
                Label [0..1]
            </text>
            <text text-anchor="start" x="30" y="-1111.8" font-family="Times,serif" font-size="14.00"># &#160;&#160;monthNames:
                String[] [0..*]
            </text>
            <text text-anchor="start" x="30" y="-1088.8" font-family="Times,serif" font-size="14.00"># &#160;&#160;mothSlideCount:
                int [1]
            </text>
            <text text-anchor="start" x="30" y="-1065.8" font-family="Times,serif" font-size="14.00">&#45; &#160;&#160;owner:
                Owner [0..1]
            </text>
            <text text-anchor="start" x="30" y="-1042.8" font-family="Times,serif" font-size="14.00">&#45; &#160;&#160;peopleDirectory:
                ComboBox [0..1]
            </text>
            <text text-anchor="start" x="30" y="-1019.8" font-family="Times,serif" font-size="14.00">&#45; &#160;&#160;person:
                Person [0..1]
            </text>
            <text text-anchor="start" x="30" y="-996.8" font-family="Times,serif" font-size="14.00">&#45; &#160;&#160;projectOwner:
                ProjectOwner [0..1]
            </text>
            <text text-anchor="start" x="30" y="-973.8" font-family="Times,serif" font-size="14.00">&#45; &#160;&#160;projectOwners:
                List&lt;ProjectOwner&gt; [0..*]
            </text>
            <text text-anchor="start" x="30" y="-950.8" font-family="Times,serif" font-size="14.00">&#45; &#160;&#160;root:
                Parent [0..1]
            </text>
            <text text-anchor="start" x="30" y="-927.8" font-family="Times,serif" font-size="14.00">&#45; &#160;&#160;scene:
                Scene [0..1]
            </text>
            <text text-anchor="start" x="30" y="-904.8" font-family="Times,serif" font-size="14.00"># &#160;&#160;showBothCalender:
                boolean [1]
            </text>
            <text text-anchor="start" x="30" y="-881.8" font-family="Times,serif" font-size="14.00">&#45; &#160;&#160;stage:
                Stage [0..1]
            </text>
            <text text-anchor="start" x="30" y="-858.8" font-family="Times,serif" font-size="14.00">&#45;
                IsAnyAppointmentInputEmpty(textTitel: TextField, datePicker: DatePicker, textBeginn: TextField, textEnd:
                TextField, textArea: TextArea): boolean
            </text>
            <text text-anchor="start" x="30" y="-835.8" font-family="Times,serif" font-size="14.00">+ addAppointment()
            </text>
            <text text-anchor="start" x="30" y="-812.8" font-family="Times,serif" font-size="14.00">&#45;
                editAppointment(event: ActionEvent, dialog: Alert, ok: ButtonType, textTitel: TextField, datePicker:
                DatePicker, textBeginn: TextField, textEnd: TextField, textArea: TextArea)
            </text>
            <text text-anchor="start" x="30" y="-789.8" font-family="Times,serif" font-size="14.00">+
                initialize(location: URL, resources: ResourceBundle)
            </text>
            <text text-anchor="start" x="30" y="-766.8" font-family="Times,serif" font-size="14.00">&#45;
                loadAppointmentOftheDay(date: LocalDateTime, appointmentOftheDay: Appointment)
            </text>
            <text text-anchor="start" x="30" y="-743.8" font-family="Times,serif" font-size="14.00">&#45;
                loadAppointments(calenderGrid: GridPane, colum: int, row: int, cell: Bounds, month: Month, day: int)
            </text>
            <text text-anchor="start" x="30" y="-720.8" font-family="Times,serif" font-size="14.00">&#45; nextMonth()
            </text>
            <text text-anchor="start" x="30" y="-697.8" font-family="Times,serif" font-size="14.00">+
                onClickGetAJokeView(event: ActionEvent)
            </text>
            <text text-anchor="start" x="30" y="-674.8" font-family="Times,serif" font-size="14.00">+
                onClickGetStockView(event: ActionEvent)
            </text>
            <text text-anchor="start" x="30" y="-651.8" font-family="Times,serif" font-size="14.00">&#45;
                previousMonth()
            </text>
            <text text-anchor="start" x="30" y="-628.8" font-family="Times,serif" font-size="14.00">+
                reloadCalenderSlide()
            </text>
            <text text-anchor="start" x="30" y="-605.8" font-family="Times,serif" font-size="14.00">+
                removeButton(button: Button)
            </text>
            <text text-anchor="start" x="30" y="-582.8" font-family="Times,serif" font-size="14.00">+
                removeButtonByRowColumnIndex(row: int, column: int, gridPane: GridPane)
            </text>
            <text text-anchor="start" x="30" y="-559.8" font-family="Times,serif" font-size="14.00">+
                removeLabelByRowColumnIndex(row: int, column: int, gridPane: GridPane)
            </text>
            <text text-anchor="start" x="30" y="-536.8" font-family="Times,serif" font-size="14.00">&#45;
                showAppointmentInfo(event: ActionEvent, appointment: Appointment)
            </text>
            <text text-anchor="start" x="30" y="-513.8" font-family="Times,serif" font-size="14.00">+ showImpressum()
            </text>
            <text text-anchor="start" x="30" y="-490.8" font-family="Times,serif" font-size="14.00">&#45;
                showVisableAppointmentsOfPerson()
            </text>
            <text text-anchor="start" x="30" y="-467.8" font-family="Times,serif" font-size="14.00">&#45;
                validateUserInput(dialog: Alert, create: ButtonType, textTitel: TextField, datePicker: DatePicker,
                textBeginn: TextField, textEnd: TextField, noteLable: Label, textArea: TextArea)
            </text>
            <polygon fill="black" stroke="black" points="25,-1219 25,-1219 1024,-1219 1024,-1219 25,-1219"/>
            <polygon fill="black" stroke="black" points="25,-874 25,-874 1024,-874 1024,-874 25,-874"/>
            <polygon fill="none" stroke="black" points="24.5,-459 24.5,-1243 1023.5,-1243 1023.5,-459 24.5,-459"/>
        </g>
        <!-- CalenderController1266025533&#45;&gt;Appointment1266025533 -->
        <g id="edge1" class="edge">
            <title>CalenderController1266025533&#45;&gt;Appointment1266025533</title>
            <path fill="none" stroke="black"
                  d="M506.958,-458.664C501.575,-335.048 497,-230 497,-230 497,-230 463.217,-201.496 426.698,-170.683"/>
            <polygon fill="black" stroke="black"
                     points="428.775,-167.856 418.875,-164.082 424.261,-173.206 428.775,-167.856"/>
            <text text-anchor="middle" x="541" y="-315.3" font-family="Times,serif" font-size="14.00">appointments
            </text>
            <text text-anchor="middle" x="541" y="-300.3" font-family="Times,serif" font-size="14.00">[0..*]</text>
        </g>
        <!-- Owner1266025533 -->
        <g id="node3" class="node">
            <title>Owner1266025533</title>
            <polygon fill="#ffffff" stroke="none" points="179.5,-112 114.5,-112 114.5,-76 179.5,-76 179.5,-112"/>
            <text text-anchor="start" x="120" y="-89.8" font-family="Times,serif" font-size="14.00">(C)Owner</text>
            <polygon fill="none" stroke="black" points="114.5,-81.5 114.5,-106.5 179.5,-106.5 179.5,-81.5 114.5,-81.5"/>
        </g>
        <!-- CalenderController1266025533&#45;&gt;Owner1266025533 -->
        <g id="edge2" class="edge">
            <title>CalenderController1266025533&#45;&gt;Owner1266025533</title>
            <path fill="none" stroke="black"
                  d="M168.901,-458.964C132.756,-419.161 109,-393 109,-393 109,-393 109,-230 109,-230 109,-230 128.349,-161.259 139.433,-121.881"/>
            <polygon fill="black" stroke="black"
                     points="142.847,-122.672 142.187,-112.098 136.109,-120.775 142.847,-122.672"/>
            <text text-anchor="middle" x="126" y="-315.3" font-family="Times,serif" font-size="14.00">owner</text>
            <text text-anchor="middle" x="126" y="-300.3" font-family="Times,serif" font-size="14.00">[0..1]</text>
        </g>
        <!-- Person1266025533 -->
        <g id="node4" class="node">
            <title>Person1266025533</title>
            <polygon fill="#ffffff" stroke="none" points="488,-393 152,-393 152,-230 488,-230 488,-393"/>
            <text text-anchor="start" x="157" y="-376.3" font-family="Times,serif" font-size="14.00">(C)Person</text>
            <text text-anchor="start" x="157" y="-353.3" font-family="Times,serif" font-size="14.00">&#45; &#160;&#160;appointments:
                List&lt;Appointment&gt; [0..*]
            </text>
            <text text-anchor="start" x="157" y="-330.3" font-family="Times,serif" font-size="14.00">&#45; &#160;&#160;firstName:
                String [0..1]
            </text>
            <text text-anchor="start" x="157" y="-307.3" font-family="Times,serif" font-size="14.00">&#45; &#160;&#160;perosnkind:
                personAppointmentCalenderKind [0..1]
            </text>
            <text text-anchor="start" x="157" y="-284.3" font-family="Times,serif" font-size="14.00">&#45; &#160;&#160;secondName:
                String [0..1]
            </text>
            <text text-anchor="start" x="157" y="-261.3" font-family="Times,serif" font-size="14.00">+
                addAllAppointments(appointments: List&lt;Appointment&gt;)
            </text>
            <text text-anchor="start" x="157" y="-238.3" font-family="Times,serif" font-size="14.00">+
                addAppointment(appointment: Appointment)
            </text>
            <polygon fill="black" stroke="black" points="152,-368.5 152,-368.5 488,-368.5 488,-368.5 152,-368.5"/>
            <polygon fill="black" stroke="black" points="152,-276.5 152,-276.5 488,-276.5 488,-276.5 152,-276.5"/>
            <polygon fill="none" stroke="black" points="152,-230 152,-393 488,-393 488,-230 152,-230"/>
        </g>
        <!-- CalenderController1266025533&#45;&gt;Person1266025533 -->
        <g id="edge3" class="edge">
            <title>CalenderController1266025533&#45;&gt;Person1266025533</title>
            <path fill="none" stroke="black" d="M375.474,-458.664C367.913,-438.741 360.785,-419.962 354.319,-402.925"/>
            <polygon fill="black" stroke="black"
                     points="357.411,-401.207 350.59,-393.1 350.867,-403.691 357.411,-401.207"/>
            <text text-anchor="middle" x="382.5" y="-429.8" font-family="Times,serif" font-size="14.00">person</text>
            <text text-anchor="middle" x="382.5" y="-414.8" font-family="Times,serif" font-size="14.00">[0..1]</text>
        </g>
        <!-- ProjectOwner1266025533 -->
        <g id="node5" class="node">
            <title>ProjectOwner1266025533</title>
            <polygon fill="#ffffff" stroke="none" points="820,-118 448,-118 448,-70 820,-70 820,-118"/>
            <text text-anchor="start" x="453" y="-101.8" font-family="Times,serif" font-size="14.00">(C)ProjectOwner
            </text>
            <text text-anchor="start" x="453" y="-78.8" font-family="Times,serif" font-size="14.00">+
                addAvaialbeTime(begin: LocalDateTime, end: LocalDateTime)
            </text>
            <polygon fill="black" stroke="black" points="448,-94 448,-94 820,-94 820,-94 448,-94"/>
            <polygon fill="none" stroke="black" points="448,-70 448,-118 820,-118 820,-70 448,-70"/>
        </g>
        <!-- CalenderController1266025533&#45;&gt;ProjectOwner1266025533 -->
        <g id="edge4" class="edge">
            <title>CalenderController1266025533&#45;&gt;ProjectOwner1266025533</title>
            <path fill="none" stroke="black"
                  d="M590.741,-458.964C597.535,-419.161 602,-393 602,-393 602,-393 622.018,-206.583 630.388,-128.632"/>
            <polygon fill="black" stroke="black"
                     points="633.901,-128.7 631.489,-118.384 626.941,-127.953 633.901,-128.7"/>
            <text text-anchor="middle" x="656.5" y="-315.3" font-family="Times,serif" font-size="14.00">projectOwner
            </text>
            <text text-anchor="middle" x="656.5" y="-300.3" font-family="Times,serif" font-size="14.00">[0..1]</text>
        </g>
        <!-- CalenderController1266025533&#45;&gt;ProjectOwner1266025533 -->
        <g id="edge5" class="edge">
            <title>CalenderController1266025533&#45;&gt;ProjectOwner1266025533</title>
            <path fill="none" stroke="black"
                  d="M672.885,-458.964C688.039,-419.161 698,-393 698,-393 698,-393 698,-230 698,-230 698,-230 668.26,-167.267 649.326,-127.329"/>
            <polygon fill="black" stroke="black"
                     points="652.448,-125.744 645.002,-118.207 646.123,-128.743 652.448,-125.744"/>
            <text text-anchor="middle" x="738" y="-315.3" font-family="Times,serif" font-size="14.00">projectOwners
            </text>
            <text text-anchor="middle" x="738" y="-300.3" font-family="Times,serif" font-size="14.00">[0..*]</text>
        </g>
        <!-- Person1266025533&#45;&gt;Appointment1266025533 -->
        <g id="edge6" class="edge">
            <title>Person1266025533&#45;&gt;Appointment1266025533</title>
            <path fill="none" stroke="black" d="M326.354,-229.949C327.795,-211.692 329.323,-192.319 330.758,-174.122"/>
            <polygon fill="black" stroke="black"
                     points="334.248,-174.392 331.545,-164.147 327.27,-173.841 334.248,-174.392"/>
            <text text-anchor="middle" x="367" y="-200.8" font-family="Times,serif" font-size="14.00">appointments
            </text>
            <text text-anchor="middle" x="367" y="-185.8" font-family="Times,serif" font-size="14.00">[0..*]</text>
        </g>
        <!-- Person1266025533&#45;&gt;Owner1266025533 -->
        <g id="edge7" class="edge">
            <title>Person1266025533&#45;&gt;Owner1266025533</title>
            <path fill="none" stroke="black" d="M249.01,-222.07C216.069,-181.037 180.025,-136.138 160.84,-112.24"/>
            <polygon fill="none" stroke="black"
                     points="246.346,-224.342 255.335,-229.949 251.804,-219.96 246.346,-224.342"/>
        </g>
        <!-- Person1266025533&#45;&gt;ProjectOwner1266025533 -->
        <g id="edge8" class="edge">
            <title>Person1266025533&#45;&gt;ProjectOwner1266025533</title>
            <path fill="none" stroke="black" d="M445.943,-224.065C501.925,-185.644 563.395,-143.457 600.323,-118.113"/>
            <polygon fill="none" stroke="black"
                     points="443.633,-221.405 437.369,-229.949 447.594,-227.176 443.633,-221.405"/>
        </g>
    </g>
</svg>
